<?xml version="1.0" standalone="no"?>
<!DOCTYPE svg PUBLIC "-//W3C//DTD SVG 20010904//EN"
 "http://www.w3.org/TR/2001/REC-SVG-20010904/DTD/svg10.dtd">
<svg version="1.0" xmlns="http://www.w3.org/2000/svg"
 width="1000.000000pt" height="1280.000000pt" viewBox="0 0 1000.000000 1280.000000"
 preserveAspectRatio="xMidYMid meet">
<g transform="translate(0.000000,1280.000000) scale(0.100000,-0.100000)"
fill="#000000" stroke="none">
<path d="M0 6400 l0 -6400 1595 0 1595 0 0 2034 c0 1210 4 2037 9 2040 5 4 20
-7 33 -22 12 -16 660 -934 1438 -2040 l1415 -2011 1938 -1 c1065 0 1937 2
1937 5 0 3 -1076 1461 -2390 3240 -1315 1779 -2393 3241 -2395 3248 -3 6 419
566 938 1243 2708 3537 3862 5046 3865 5055 2 5 -747 9 -1945 9 l-1948 0 -14
-22 c-25 -40 -2823 -3942 -2844 -3965 -11 -12 -24 -20 -28 -17 -5 3 -9 905 -9
2005 l0 1999 -1595 0 -1595 0 0 -6400z"/>
</g>
</svg>
